<svg xmlns="http://www.w3.org/2000/svg" xmlns:xlink="http://www.w3.org/1999/xlink" width="500" zoomAndPan="magnify" viewBox="0 0 375 374.999991" height="500" preserveAspectRatio="xMidYMid meet" version="1.0"><defs><clipPath id="2abb69169f"><path d="M 9.375 14.050781 L 365.625 14.050781 L 365.625 361 L 9.375 361 Z M 9.375 14.050781 " clip-rule="nonzero"/></clipPath></defs><g clip-path="url(#2abb69169f)"><path fill="#18181b" d="M 191.714844 14.050781 L 9.386719 14.050781 L 9.386719 71.882812 L 191.714844 71.882812 C 204.503906 71.882812 216.894531 73.984375 228.496094 77.796875 L 198.4375 129.714844 L 9.386719 129.714844 L 9.386719 187.410156 L 164.953125 187.410156 L 131.464844 245.238281 L 9.386719 245.238281 L 9.386719 303.074219 L 97.980469 303.074219 L 131.464844 245.238281 L 292.042969 245.238281 C 271.871094 279.675781 234.429688 303.074219 191.714844 303.074219 L 97.980469 303.074219 L 64.496094 360.902344 L 191.714844 360.902344 C 287.558594 360.902344 365.605469 282.964844 365.605469 187.410156 C 365.605469 91.992188 287.429688 14.050781 191.714844 14.050781 Z M 198.4375 129.714844 L 292.042969 129.714844 C 301.925781 146.667969 307.726562 166.382812 307.726562 187.410156 L 164.953125 187.410156 Z M 198.4375 129.714844 " fill-opacity="1" fill-rule="evenodd"/></g></svg>